<svg version="1.1" id="Layer_1" xmlns="http://www.w3.org/2000/svg" xmlns:xlink="http://www.w3.org/1999/xlink" x="0px" y="0px"
	 width="100%" viewBox="0 0 528 928" enable-background="new 0 0 528 928" xml:space="preserve">
<path fill="#000000" opacity="1.000000" stroke="none" 
	d="
M421.380310,619.587036 
	C413.181427,604.268555 404.061188,590.067932 392.657349,577.338684 
	C372.472717,554.808044 348.856445,537.255920 320.617737,526.067200 
	C305.425415,520.047729 289.973999,515.968323 273.464508,514.986450 
	C253.873001,513.821350 235.045105,515.961792 217.290771,524.218506 
	C196.362152,533.951477 181.637283,549.779236 173.281204,571.488525 
	C168.648453,583.524475 167.637924,595.936523 168.367081,608.610840 
	C169.285385,624.573242 179.602966,634.646179 195.727020,636.857849 
	C213.744736,639.329285 221.365341,652.092224 215.273483,669.199951 
	C212.445023,677.143127 207.746765,684.232849 205.915024,692.669189 
	C203.401550,704.245300 211.815140,714.135681 219.010132,717.664673 
	C225.762573,720.976562 232.980057,722.617859 240.431549,723.772705 
	C270.509033,728.434326 294.034027,743.624329 311.513733,768.501343 
	C319.798309,780.291809 327.167603,792.777405 338.062836,802.621216 
	C343.162567,807.228760 348.810181,810.952759 354.329010,814.922241 
	C358.631683,818.016907 363.014404,820.952271 366.276703,825.329651 
	C369.171082,829.213318 370.198364,833.456543 367.718475,837.393738 
	C365.108307,841.537842 360.450287,840.878052 356.355194,839.713379 
	C348.128571,837.373962 340.406006,833.668396 333.602936,828.601440 
	C318.526794,817.372498 301.669830,811.002136 283.447754,806.673523 
	C255.131607,799.947021 229.664062,786.903931 207.334717,767.994324 
	C183.599442,747.893982 165.371399,723.554382 152.378784,695.431580 
	C146.772751,683.297302 143.073456,670.470276 140.252579,657.215942 
	C136.376190,639.002014 136.212921,621.047363 138.632935,602.826355 
	C139.132263,599.066711 140.626907,595.577026 141.213654,591.795044 
	C141.759674,588.275391 144.360748,585.397461 148.615616,585.735352 
	C152.173264,586.017761 153.013641,584.108154 153.667160,581.100525 
	C160.033966,551.799744 176.118454,529.309998 201.934326,514.132935 
	C212.202393,508.096436 223.309906,504.064697 235.134201,501.368469 
	C252.645432,497.375488 270.071838,497.243561 287.543488,499.824371 
	C300.928406,501.801575 313.924652,505.808624 326.492523,510.895599 
	C344.605957,518.227173 361.257324,528.086548 376.527740,540.321838 
	C390.459442,551.484497 402.816437,564.136963 413.837494,578.169556 
	C427.262421,595.262939 437.576935,614.077332 444.661041,634.553406 
	C448.489166,645.618408 450.837646,657.128784 452.717621,668.742065 
	C454.385742,679.046570 453.876678,689.552185 456.301392,699.781677 
	C457.961182,706.784180 461.574951,712.954834 463.788818,719.703918 
	C467.743256,731.759216 470.339874,743.960693 468.402466,756.708130 
	C466.370789,770.075562 453.825043,777.128845 440.862671,773.041443 
	C432.167755,770.299561 425.245636,765.042419 418.414734,759.537842 
	C404.827576,748.589111 392.084869,736.577087 376.788879,727.836731 
	C366.144623,721.754272 354.602783,718.181580 342.840790,715.415466 
	C315.427124,708.968628 289.635834,699.675293 270.565216,677.430115 
	C259.838470,664.917847 251.988785,651.191162 248.313812,634.744995 
	C245.447296,621.916870 246.414200,609.961304 251.689545,598.429321 
	C258.363220,583.840698 269.734222,574.822327 285.800751,571.529236 
	C301.316498,568.348938 314.487091,572.431091 326.037323,582.690552 
	C332.308044,588.260559 335.148193,595.993225 338.313690,603.458618 
	C344.821533,618.806335 352.602325,633.132507 368.447693,640.937927 
	C371.999939,642.687744 375.773804,643.899292 379.666107,644.742981 
	C389.979431,646.978333 400.661133,647.482910 410.542358,651.767883 
	C420.966309,656.288208 429.030609,663.730347 436.750122,672.486511 
	C434.576843,653.706787 429.150635,636.501038 421.380310,619.587036 
M346.194122,658.810730 
	C346.252197,659.807678 346.110931,660.866821 346.399658,661.791748 
	C348.898315,669.796509 348.404358,677.654968 346.571045,685.809265 
	C345.580841,690.213440 342.529755,693.677612 341.889465,698.145996 
	C345.433136,699.359375 348.633240,700.948853 352.005402,701.516724 
	C361.922424,703.186951 370.949249,707.231628 379.905243,711.447632 
	C395.105042,718.602905 407.547699,729.658691 420.252441,740.344055 
	C427.591949,746.517090 434.470001,753.389893 443.684357,756.930420 
	C450.735596,759.639648 453.720154,757.678772 453.644043,750.159790 
	C453.529877,738.876648 449.939636,728.398193 445.918579,718.033691 
	C439.464905,701.399048 429.920959,686.909790 416.906006,674.584290 
	C406.617584,664.840759 393.374084,663.912598 380.637604,661.321777 
	C367.548676,658.659302 355.579834,653.785339 345.648010,644.556641 
	C334.138519,633.862000 327.414307,620.134033 321.900513,605.871277 
	C316.761078,592.576843 307.148834,585.562561 292.353668,586.556213 
	C286.092926,586.976685 279.970398,589.186279 274.787933,594.073547 
	C312.438721,603.540039 336.730408,628.522888 346.194122,658.810730 
M198.420929,737.102539 
	C237.577240,778.498169 265.591919,785.750427 311.556000,797.312500 
	C304.557587,786.081726 297.325500,775.299805 288.649414,765.645752 
	C278.305511,754.135925 265.522522,746.137451 250.387161,742.645325 
	C239.444153,740.120544 228.323608,738.493591 217.701675,734.554321 
	C194.191650,725.835449 182.927368,702.559998 193.672760,678.582092 
	C195.772079,673.897522 198.065353,669.292114 199.974747,664.532104 
	C202.176987,659.041992 200.608963,654.817383 196.085052,653.504944 
	C192.101151,652.349243 188.083160,651.283813 184.034546,650.384216 
	C175.631149,648.517029 168.642395,644.428894 163.189865,637.719238 
	C158.085785,631.438416 155.709534,623.888245 153.109268,616.390076 
	C153.209106,630.445557 153.463608,644.343445 156.889481,658.170593 
	C159.969055,670.600159 164.242203,682.445312 169.617493,693.975647 
	C176.903488,709.604736 186.751099,723.529114 198.420929,737.102539 
M329.762451,685.193542 
	C331.070526,680.882751 332.272552,676.576721 331.768921,671.968323 
	C330.575958,661.052246 327.094879,651.046021 320.621094,642.072693 
	C308.948700,625.893677 293.220490,615.699463 274.138855,610.608093 
	C266.225616,608.496704 263.554291,610.765930 263.256714,619.205872 
	C262.658630,636.167847 269.299988,650.583069 279.659515,663.438416 
	C291.426422,678.040283 306.605927,687.699097 324.759125,693.171509 
	C326.666809,691.036072 328.709045,688.894043 329.762451,685.193542 
z"/>
<path fill="#000000" opacity="1.000000" stroke="none" 
	d="
M74.680939,838.410278 
	C78.366882,850.817688 84.928482,860.736572 95.664749,867.497009 
	C102.945412,872.081482 110.970497,874.656677 119.639114,874.663513 
	C173.796661,874.706238 227.954269,874.696777 282.111847,874.699341 
	C284.948395,874.699524 287.682220,874.580200 289.932281,877.008057 
	C294.046509,881.447021 292.972412,887.668884 287.466797,890.196228 
	C285.278900,891.200562 282.961578,891.242004 280.615265,891.241394 
	C228.124069,891.227844 175.630585,891.514832 123.142715,891.095520 
	C99.650955,890.907837 80.185104,881.729309 67.315254,861.176453 
	C61.132877,851.303406 57.721230,840.417297 57.714645,828.715088 
	C57.660244,732.064636 57.634220,635.414062 57.727310,538.763733 
	C57.748779,516.474304 65.583694,496.997070 80.366531,480.369537 
	C90.556816,468.907654 102.635017,459.420349 113.784218,448.960449 
	C124.445374,438.958344 135.346954,429.212158 146.162170,419.374695 
	C165.221832,402.038086 184.287964,384.708588 203.367386,367.393738 
	C214.937210,356.893921 227.093719,346.952271 236.495651,334.321716 
	C244.592834,323.444000 250.123520,311.653687 252.119370,297.810272 
	C253.610809,287.465668 253.509430,277.259186 253.535645,266.995605 
	C253.727203,192.009705 253.742874,117.023376 253.821503,42.037186 
	C253.829208,34.692337 253.852554,34.692223 261.392609,34.687542 
	C262.725708,34.686714 264.063477,34.759254 265.391022,34.673553 
	C268.730591,34.457954 270.215027,35.821209 270.208099,39.315475 
	C270.137268,75.076141 271.147278,110.873863 269.820404,146.585617 
	C268.830292,173.233398 268.447693,199.865051 269.382172,226.437988 
	C270.085236,246.430405 270.595551,266.422089 269.931641,286.359039 
	C269.496033,299.438995 269.068054,312.593658 269.350616,325.595306 
	C269.664642,340.045685 269.867218,354.519958 270.152466,368.981537 
	C270.244110,373.627686 270.066772,378.266174 269.397705,382.923859 
	C268.561371,388.745789 272.417328,393.235992 274.770294,398.117188 
	C277.139618,403.032379 279.360840,407.825439 279.467072,413.621704 
	C279.649048,423.551666 271.083527,431.722504 261.570099,432.130341 
	C253.736099,432.466187 243.496597,423.925720 243.486053,413.679871 
	C243.478363,406.203888 246.376938,400.233704 250.022781,394.281372 
	C251.669296,391.593201 253.618164,389.045624 253.547623,385.694641 
	C253.226395,370.438110 254.047852,355.157318 252.645447,339.525940 
	C248.374008,343.218811 246.004745,348.048615 242.558105,351.996063 
	C231.786484,364.332916 218.979492,374.494354 207.040009,385.572266 
	C187.657120,403.556458 167.995560,421.240631 148.425644,439.022827 
	C132.917328,453.114441 117.554764,467.374237 101.787453,481.170746 
	C86.389847,494.643829 76.658958,511.067841 74.046280,531.411987 
	C73.309044,537.152649 73.822083,543.019409 73.845543,548.833679 
	C73.990685,584.819031 73.898376,620.805298 73.888557,656.791260 
	C73.882561,678.764832 73.934120,700.738586 73.868042,722.711914 
	C73.779900,752.020386 73.345535,781.330994 73.615997,810.635498 
	C73.700111,819.749634 73.026291,828.950012 74.680939,838.410278 
M259.142914,418.531342 
	C262.270264,419.076569 265.118652,418.921539 266.868774,415.677002 
	C267.825714,413.902924 267.959534,412.201447 266.620178,410.592102 
	C264.445221,407.978638 261.924286,406.118988 258.482239,408.260742 
	C255.389130,410.185364 255.447083,414.092865 259.142914,418.531342 
z"/>
<path fill="#000000" opacity="1.000000" stroke="none" 
	d="
M400.251678,440.705017 
	C415.069092,454.797058 431.210602,467.008270 444.366241,482.272522 
	C458.159821,498.276978 465.191833,517.103027 465.295929,538.345154 
	C465.363739,552.173157 465.620148,566.010315 465.233795,579.827759 
	C464.812347,594.900085 467.392548,609.349060 471.839355,623.688782 
	C474.079742,630.913391 475.628021,638.372925 477.990936,645.596863 
	C479.177887,649.225464 475.703308,654.952698 472.009796,655.934814 
	C468.609253,656.839050 463.334991,653.717590 462.347839,649.768860 
	C460.548035,642.569763 458.359406,635.458740 456.309357,628.356323 
	C453.361969,618.145264 451.114197,607.880493 449.439728,597.425354 
	C449.096130,595.280151 448.754456,593.174255 448.753418,591.009644 
	C448.745056,573.516052 448.499756,556.018555 448.790833,538.529968 
	C449.121552,518.661194 441.838287,501.971771 428.298950,487.907318 
	C414.912262,474.001495 399.742737,462.003937 385.576477,448.921509 
	C363.469757,428.506165 340.940369,408.548828 318.619537,388.364807 
	C309.861542,380.445190 301.149567,372.473694 292.490326,364.446350 
	C290.152924,362.279541 288.048859,359.879150 289.041748,356.190308 
	C290.686707,350.078827 297.730621,348.320099 303.085297,352.999603 
	C311.714447,360.540649 320.156281,368.296387 328.661346,375.979034 
	C352.445435,397.463226 376.221405,418.956451 400.251678,440.705017 
z"/>
<path fill="#000000" opacity="1.000000" stroke="none" 
	d="
M321.710999,727.414795 
	C322.863098,728.873596 324.041534,729.935608 324.619354,731.259644 
	C326.197662,734.876282 325.392426,738.121033 322.377869,740.692322 
	C319.538025,743.114624 316.478821,742.923523 313.717255,740.719727 
	C307.740509,735.949951 301.795959,731.128113 296.043365,726.093140 
	C291.849640,722.422729 291.776337,718.865112 295.275513,714.823120 
	C297.716095,712.004028 302.744965,711.634338 306.137360,714.344116 
	C311.335571,718.496460 316.363251,722.862366 321.710999,727.414795 
z"/>
<path fill="#000000" opacity="1.000000" stroke="none" 
	d="
M217.753052,627.479980 
	C214.722198,626.003479 213.567627,623.959167 213.611786,620.917664 
	C213.737106,612.286011 213.756516,603.649963 213.626038,595.018555 
	C213.554047,590.254944 216.071548,588.446899 220.375320,588.388550 
	C224.647751,588.330566 227.312759,590.124878 227.500854,594.763000 
	C227.842178,603.179749 226.733490,611.584167 228.234314,620.046814 
	C229.163620,625.286743 224.377075,628.427429 217.753052,627.479980 
z"/>
<path fill="#000000" opacity="1.000000" stroke="none" 
	d="
M268.595520,537.162109 
	C267.448151,532.690063 270.034210,530.543884 272.888397,528.321045 
	C275.734772,526.104248 278.182129,527.011353 280.536011,528.805603 
	C286.198608,533.121887 291.604401,537.785583 296.141144,543.270386 
	C299.202881,546.971863 298.348389,551.596558 294.586029,554.722473 
	C290.984406,557.714844 287.486481,556.496582 284.936768,553.501770 
	C279.986847,547.687683 272.933594,544.047363 268.595520,537.162109 
z"/>
<path fill="#000000" opacity="1.000000" stroke="none" 
	d="
M240.731628,571.160095 
	C234.452667,571.171265 228.639816,571.227966 222.828232,571.165894 
	C217.795944,571.112183 214.657974,568.285217 214.508423,563.845947 
	C214.382919,560.120361 217.321655,557.267944 221.810074,556.559143 
	C228.262909,555.540161 234.741180,556.323730 241.195984,556.321289 
	C247.579651,556.318909 249.933456,558.806091 249.887497,564.030884 
	C249.844116,568.962158 247.679672,570.736511 240.731628,571.160095 
z"/>
<path fill="#000000" opacity="1.000000" stroke="none" 
	d="
M246.410019,680.407959 
	C242.636826,683.440674 239.071930,686.172302 235.672287,689.096008 
	C232.548553,691.782532 229.522308,692.182556 226.316101,689.373840 
	C222.807327,686.299927 221.855804,682.282104 224.342697,678.733826 
	C228.242081,673.170227 234.503113,670.286133 239.562057,666.023987 
	C241.963181,664.001038 244.639008,663.391602 247.410294,665.007202 
	C250.131042,666.593384 251.943512,669.076904 252.079056,672.267090 
	C252.241669,676.094421 249.224030,678.042297 246.410019,680.407959 
z"/>
<path fill="#000000" opacity="1.000000" stroke="none" 
	d="
M387.303192,628.603333 
	C382.858429,630.039612 378.769989,631.295227 374.697906,632.601807 
	C370.631195,633.906616 367.321259,632.855469 365.468689,629.017395 
	C363.655334,625.260498 364.479065,621.604431 368.179138,619.513000 
	C374.809509,615.765198 381.912689,613.048035 389.566772,612.334473 
	C393.267151,611.989502 396.126648,613.899841 397.084534,617.518494 
	C398.136475,621.492493 396.773651,624.714355 392.747711,626.409424 
	C391.066437,627.117371 389.361084,627.768188 387.303192,628.603333 
z"/>
<path fill="#000000" opacity="1.000000" stroke="none" 
	d="
M338.217590,570.575867 
	C334.565033,566.691711 335.131073,563.100159 338.183167,559.706787 
	C341.245911,556.301575 344.649750,556.444885 348.310211,558.950867 
	C352.532959,561.841614 356.951721,564.446838 361.162994,567.353394 
	C365.249390,570.173706 366.471985,574.836060 364.225677,578.088135 
	C361.436371,582.126282 357.518921,583.049866 353.057190,580.152344 
	C348.219482,577.010620 342.747864,574.862061 338.217590,570.575867 
z"/>
<path fill="#000000" opacity="1.000000" stroke="none" 
	d="
M358.624939,754.460632 
	C355.721741,750.794983 352.996918,747.460999 350.409790,744.023499 
	C347.636597,740.338623 347.927765,735.057373 350.919861,732.278564 
	C354.367828,729.076416 357.755341,728.867981 360.931030,732.342224 
	C365.392761,737.223450 369.119019,742.721436 372.528992,748.386719 
	C374.414764,751.519775 372.815277,754.103760 370.475586,756.296448 
	C367.865936,758.742188 364.883179,759.058960 361.806458,757.387512 
	C360.679901,756.775513 359.836517,755.642212 358.624939,754.460632 
z"/>
<path fill="#000000" opacity="1.000000" stroke="none" 
	d="
M252.641418,706.808716 
	C255.204132,703.267456 258.089142,700.525574 261.050629,697.868103 
	C264.298553,694.953674 267.703094,694.244751 271.235321,697.440369 
	C274.157501,700.084229 274.452301,704.523743 271.638275,708.135803 
	C269.405609,711.001648 266.957153,713.726318 264.387909,716.297241 
	C259.808563,720.879517 256.844543,721.336670 253.207184,718.358154 
	C249.415329,715.253296 249.221481,712.571533 252.641418,706.808716 
z"/>
<path fill="#000000" opacity="1.000000" stroke="none" 
	d="
M373.321320,586.288391 
	C377.815338,584.017456 381.394348,584.732239 383.832123,588.799194 
	C386.317657,592.945801 385.225494,596.431641 380.656342,599.779114 
	C378.792389,601.144653 376.855499,602.428711 374.860992,603.594299 
	C370.554199,606.111084 367.215454,605.266541 364.193542,601.024292 
	C361.736176,597.574524 362.237061,594.077454 365.969269,591.074707 
	C368.143829,589.325195 370.659058,587.999207 373.321320,586.288391 
z"/>
</svg>